<svg xmlns="http://www.w3.org/2000/svg" xmlns:xlink="http://www.w3.org/1999/xlink" width="500" zoomAndPan="magnify" viewBox="0 0 375 374.999991" height="500" preserveAspectRatio="xMidYMid meet" version="1.0"><defs><clipPath id="9d88120c6a"><path d="M 65.207031 61.070312 L 309.707031 61.070312 L 309.707031 313.820312 L 65.207031 313.820312 Z M 65.207031 61.070312 " clip-rule="nonzero"/></clipPath></defs><rect x="-37.5" width="450" fill="#ffffff" y="-37.499999" height="449.999989" fill-opacity="1"/><rect x="-37.5" width="450" fill="#ffffff" y="-37.499999" height="449.999989" fill-opacity="1"/><rect x="-37.5" width="450" fill="#ffffff" y="-37.499999" height="449.999989" fill-opacity="1"/><g clip-path="url(#9d88120c6a)"><path fill="#00400e" d="M 296 305.789062 C 293.878906 287.644531 277.417969 273.472656 257.484375 273.472656 C 253.152344 273.460938 248.925781 274.117188 244.800781 275.445312 C 243.65625 275.785156 242.484375 275.976562 241.289062 276.015625 C 240.09375 276.054688 238.914062 275.941406 237.75 275.675781 C 236.582031 275.410156 235.46875 275 234.410156 274.445312 C 233.351562 273.890625 232.378906 273.210938 231.496094 272.40625 C 221.800781 264.082031 207.371094 259.042969 191.460938 258.324219 L 191.460938 138.992188 L 207.734375 138.992188 C 209.492188 138.988281 211.242188 138.902344 212.988281 138.726562 C 214.734375 138.550781 216.46875 138.292969 218.191406 137.945312 C 219.914062 137.601562 221.613281 137.175781 223.292969 136.664062 C 224.972656 136.152344 226.621094 135.558594 228.242188 134.886719 C 229.863281 134.214844 231.449219 133.464844 232.996094 132.632812 C 234.542969 131.804688 236.046875 130.90625 237.507812 129.929688 C 238.964844 128.953125 240.375 127.910156 241.730469 126.796875 C 243.089844 125.683594 244.386719 124.503906 245.628906 123.265625 C 246.871094 122.023438 248.046875 120.726562 249.164062 119.367188 C 250.277344 118.011719 251.324219 116.605469 252.300781 115.144531 C 253.273438 113.6875 254.179688 112.183594 255.007812 110.636719 C 255.835938 109.089844 256.589844 107.507812 257.261719 105.886719 C 257.9375 104.265625 258.527344 102.613281 259.042969 100.9375 C 259.554688 99.257812 259.980469 97.558594 260.328125 95.835938 C 260.671875 94.117188 260.933594 92.382812 261.109375 90.636719 C 261.285156 88.890625 261.375 87.136719 261.378906 85.382812 L 261.378906 61.210938 L 237.214844 61.210938 C 235.460938 61.214844 233.707031 61.304688 231.957031 61.480469 C 230.210938 61.652344 228.472656 61.914062 226.75 62.257812 C 225.027344 62.605469 223.328125 63.03125 221.648438 63.546875 C 219.964844 64.058594 218.316406 64.648438 216.691406 65.324219 C 215.070312 66 213.484375 66.75 211.933594 67.578125 C 210.386719 68.410156 208.882812 69.3125 207.421875 70.289062 C 205.960938 71.265625 204.550781 72.3125 203.195312 73.425781 C 201.835938 74.542969 200.539062 75.722656 199.296875 76.964844 C 198.054688 78.207031 196.875 79.507812 195.761719 80.863281 C 194.644531 82.222656 193.601562 83.632812 192.625 85.09375 C 191.648438 86.554688 190.746094 88.058594 189.917969 89.609375 C 189.089844 91.15625 188.335938 92.742188 187.664062 94.367188 C 186.992188 95.988281 186.398438 97.640625 185.886719 99.320312 C 185.375 101 184.949219 102.703125 184.605469 104.425781 C 184.261719 106.148438 184 107.882812 183.828125 109.632812 C 183.652344 111.382812 183.5625 113.132812 183.5625 114.890625 L 183.5625 162.554688 C 181.796875 160.261719 179.796875 158.203125 177.5625 156.371094 C 175.324219 154.539062 172.910156 152.988281 170.3125 151.710938 C 167.71875 150.433594 165.015625 149.46875 162.199219 148.816406 C 159.382812 148.164062 156.527344 147.835938 153.636719 147.839844 L 135.886719 147.839844 L 135.886719 165.589844 C 135.886719 166.828125 135.953125 168.0625 136.078125 169.292969 C 136.199219 170.519531 136.382812 171.742188 136.628906 172.953125 C 136.871094 174.167969 137.175781 175.363281 137.535156 176.546875 C 137.898438 177.730469 138.316406 178.890625 138.792969 180.035156 C 139.265625 181.175781 139.796875 182.289062 140.382812 183.378906 C 140.964844 184.46875 141.601562 185.527344 142.292969 186.554688 C 142.980469 187.582031 143.71875 188.574219 144.503906 189.527344 C 145.289062 190.484375 146.117188 191.398438 146.996094 192.269531 C 147.871094 193.144531 148.785156 193.972656 149.742188 194.757812 C 150.699219 195.539062 151.691406 196.273438 152.71875 196.960938 C 153.75 197.648438 154.808594 198.28125 155.898438 198.863281 C 156.992188 199.445312 158.105469 199.972656 159.25 200.445312 C 160.390625 200.921875 161.554688 201.335938 162.738281 201.695312 C 163.921875 202.054688 165.121094 202.355469 166.332031 202.59375 C 167.546875 202.835938 168.769531 203.019531 170 203.140625 C 171.230469 203.261719 172.460938 203.324219 173.699219 203.324219 L 183.5625 203.324219 L 183.5625 258.34375 C 167.652344 259.0625 153.222656 264.101562 143.527344 272.425781 C 142.644531 273.230469 141.671875 273.910156 140.613281 274.464844 C 139.554688 275.019531 138.441406 275.429688 137.277344 275.695312 C 136.109375 275.960938 134.929688 276.074219 133.734375 276.035156 C 132.539062 275.996094 131.371094 275.804688 130.222656 275.464844 C 126.101562 274.136719 121.871094 273.480469 117.539062 273.492188 C 97.605469 273.492188 81.144531 287.664062 79.074219 305.808594 L 65.207031 305.808594 L 65.207031 313.699219 L 309.746094 313.699219 L 309.746094 305.808594 Z M 191.453125 114.890625 C 191.453125 113.390625 191.527344 111.898438 191.675781 110.40625 C 191.824219 108.914062 192.046875 107.433594 192.339844 105.964844 C 192.632812 104.496094 192.996094 103.042969 193.433594 101.609375 C 193.871094 100.175781 194.375 98.765625 194.949219 97.382812 C 195.523438 95.996094 196.164062 94.644531 196.871094 93.324219 C 197.578125 92 198.347656 90.71875 199.179688 89.472656 C 200.011719 88.226562 200.902344 87.023438 201.855469 85.863281 C 202.804688 84.707031 203.808594 83.597656 204.867188 82.535156 C 205.929688 81.476562 207.035156 80.472656 208.195312 79.519531 C 209.351562 78.570312 210.554688 77.675781 211.800781 76.84375 C 213.046875 76.007812 214.328125 75.238281 215.652344 74.53125 C 216.972656 73.824219 218.324219 73.183594 219.707031 72.609375 C 221.09375 72.03125 222.5 71.527344 223.933594 71.089844 C 225.367188 70.652344 226.820312 70.289062 228.289062 69.992188 C 229.757812 69.699219 231.238281 69.476562 232.730469 69.328125 C 234.222656 69.179688 235.71875 69.101562 237.214844 69.101562 L 253.488281 69.101562 L 253.488281 85.382812 C 253.488281 86.882812 253.414062 88.378906 253.265625 89.867188 C 253.113281 91.359375 252.894531 92.839844 252.601562 94.3125 C 252.304688 95.78125 251.941406 97.234375 251.503906 98.667969 C 251.066406 100.101562 250.5625 101.511719 249.988281 102.894531 C 249.414062 104.28125 248.773438 105.632812 248.066406 106.953125 C 247.355469 108.277344 246.585938 109.558594 245.753906 110.804688 C 244.921875 112.050781 244.027344 113.253906 243.078125 114.414062 C 242.125 115.570312 241.121094 116.679688 240.058594 117.738281 C 239 118.800781 237.890625 119.804688 236.730469 120.757812 C 235.570312 121.707031 234.371094 122.597656 233.125 123.433594 C 231.875 124.265625 230.59375 125.035156 229.269531 125.742188 C 227.949219 126.449219 226.59375 127.089844 225.210938 127.664062 C 223.824219 128.238281 222.417969 128.746094 220.980469 129.179688 C 219.546875 129.617188 218.097656 129.980469 216.625 130.273438 C 215.15625 130.570312 213.675781 130.789062 212.183594 130.9375 C 210.691406 131.085938 209.195312 131.160156 207.695312 131.164062 L 197.003906 131.164062 L 235.175781 92.996094 L 229.601562 87.414062 L 191.453125 125.589844 Z M 177.949219 195.433594 L 173.699219 195.433594 C 172.722656 195.433594 171.746094 195.382812 170.769531 195.285156 C 169.796875 195.1875 168.832031 195.042969 167.871094 194.851562 C 166.910156 194.660156 165.964844 194.421875 165.027344 194.136719 C 164.09375 193.851562 163.171875 193.519531 162.269531 193.144531 C 161.363281 192.769531 160.480469 192.351562 159.617188 191.890625 C 158.757812 191.425781 157.917969 190.925781 157.105469 190.378906 C 156.292969 189.835938 155.507812 189.253906 154.75 188.632812 C 153.996094 188.011719 153.269531 187.355469 152.578125 186.664062 C 151.886719 185.972656 151.230469 185.246094 150.609375 184.492188 C 149.988281 183.734375 149.40625 182.949219 148.863281 182.136719 C 148.320312 181.324219 147.816406 180.484375 147.355469 179.621094 C 146.894531 178.757812 146.476562 177.875 146.101562 176.972656 C 145.726562 176.070312 145.394531 175.148438 145.109375 174.210938 C 144.824219 173.277344 144.585938 172.328125 144.394531 171.371094 C 144.203125 170.410156 144.058594 169.441406 143.960938 168.46875 C 143.867188 167.496094 143.816406 166.519531 143.816406 165.542969 L 143.816406 155.679688 L 153.675781 155.679688 C 154.65625 155.679688 155.632812 155.730469 156.609375 155.828125 C 157.585938 155.925781 158.550781 156.070312 159.511719 156.261719 C 160.472656 156.453125 161.421875 156.691406 162.359375 156.976562 C 163.296875 157.265625 164.21875 157.59375 165.121094 157.96875 C 166.027344 158.347656 166.910156 158.765625 167.773438 159.226562 C 168.636719 159.691406 169.476562 160.195312 170.289062 160.738281 C 171.105469 161.285156 171.890625 161.867188 172.644531 162.492188 C 173.402344 163.113281 174.125 163.769531 174.820312 164.464844 C 175.511719 165.15625 176.167969 165.882812 176.789062 166.640625 C 177.410156 167.398438 177.992188 168.183594 178.535156 169 C 179.078125 169.816406 179.578125 170.65625 180.039062 171.519531 C 180.503906 172.382812 180.917969 173.269531 181.292969 174.171875 C 181.667969 175.078125 181.996094 176 182.28125 176.9375 C 182.5625 177.875 182.800781 178.824219 182.992188 179.785156 C 183.183594 180.746094 183.324219 181.714844 183.421875 182.6875 C 183.515625 183.664062 183.5625 184.640625 183.5625 185.621094 L 183.5625 189.851562 L 159.46875 165.75 L 153.886719 171.332031 Z M 177.949219 195.433594 " fill-opacity="1" fill-rule="nonzero"/></g></svg>