<svg enable-background="new 0 0 149.167 172.243" height="172.243" viewBox="0 0 149.167 172.243" width="149.167" xmlns="http://www.w3.org/2000/svg"><path d="m149.167 129.183-74.584 43.06-74.583-43.06v-86.122l74.583-43.061 74.584 43.061z" fill="#585858"/><path d="m41.88 84.75 25.09 26.783-12.081-26.783zm32.703 31.091 14.057-31.091h-28.113zm-19.574-36.247 8.217-15.466h-10.553l-11.6 15.466zm27.187 31.939 25.091-26.783h-13.01zm-21.347-31.939h27.469l-8.217-15.466h-11.036zm33.308 0h13.936l-11.599-15.466h-10.552zm5.678-19.574 15.467 20.621c.376.483.55 1.04.523 1.671-.027.632-.257 1.174-.686 1.632l-38.664 41.243c-.483.536-1.113.804-1.893.804-.778 0-1.408-.268-1.892-.804l-38.664-41.243c-.429-.457-.658-1-.685-1.632-.027-.631.147-1.188.523-1.671l15.467-20.621c.484-.699 1.168-1.047 2.054-1.047h46.398c.884 0 1.57.349 2.052 1.047z" fill="#fff"/></svg>